<svg fill="none" height="46" viewBox="0 0 191 46" width="191" xmlns="http://www.w3.org/2000/svg"><g clip-rule="evenodd" fill-rule="evenodd"><g fill="#00132c"><path d="m69.2682 10.4786c0-6.09916 2.5441-9.1484 7.1231-9.1484 3.8157 0 6.1049 2.03283 6.3598 5.33671l-.2549.25392h-2.035l-.2542-.25392c-.2549-1.77891-1.2716-3.04996-3.8157-3.04996-3.0532 0-4.579 2.28747-4.579 6.86165 0 4.5743 1.5258 6.861 4.579 6.861 2.7983 0 3.5608-1.525 3.8157-3.3032l.2542-.2546h2.035l.2549.2546c-.2549 3.3032-2.2899 5.5907-6.3598 5.5907-4.579 0-7.1231-3.0493-7.1231-9.1485z"/><path d="m91.655 17.3399c2.7983 0 4.07-2.2875 4.07-6.861 0-4.57489-1.2717-6.86164-4.07-6.86164h-.2542c-2.7982 0-4.0699 2.28675-4.0699 6.86164 0 4.5735 1.2717 6.861 4.0699 6.861zm-.2542 2.2875c-4.3248 0-6.6139-3.05-6.6139-9.1485 0-6.09915 2.2891-9.14839 6.6139-9.14839h.2542c4.3249 0 6.614 3.04924 6.614 9.14839 0 6.0985-2.2891 9.1485-6.614 9.1485z"/><path d="m108.446 19.1187-.255.2539h-2.289l-.255-.2539-5.596-15.50158v-1.7789l.254-.25393h1.527l.254.25393 4.833 13.97658h.254l4.834-13.97658.254-.25393h1.527l.254.25393v1.7789z"/><path d="m127.526 19.3729h-10.176l-.254-.2539v-1.779l.254-.2546h3.562l.254-.2539v-12.70625l-.254-.25392h-3.308l-.254-.25393v-1.7789l.254-.25464h9.667l.255.25464v1.7789l-.255.25393h-3.307l-.254.25392v12.70625l.254.2539h3.562l.254.2546v1.779z"/><path d="m136.43 3.87133h-1.526l-.255.25392v12.70625l.255.2539h1.526c4.833 0 5.597-2.2867 5.597-6.607 0-4.31961-.764-6.60707-5.597-6.60707zm.254 15.50157h-4.324l-.255-.2539v-17.2805l.255-.25464h4.324c6.36 0 7.887 3.55851 7.887 8.89454 0 5.3367-1.527 8.8945-7.887 8.8945z"/><path d="m159.581 14.0362h-11.957l-.254-.2539v-1.7789l.254-.2546h11.957l.254.2546v1.7789z"/><path d="m163.652 17.3399.254-.2539h4.834l.254-.254v-11.94442h-.254l-3.307 3.30388h-.509l-.255-.25393v-2.03354l4.071-4.06565.508-.25393h2.036l.253.25393v14.99366l.255.254h4.07l.255.2539v1.7789l-.255.2539h-11.956l-.254-.2539z"/><path d="m184.258 10.7329c2.29 0 3.562-1.27108 3.562-3.55784 0-2.54139-1.527-3.5578-3.562-3.5578s-3.307 1.27034-3.307 3.5578c0 2.28676 1.272 3.55784 3.307 3.55784zm-.254 8.8945c-2.799 0-4.833-1.525-5.088-4.3203l.255-.2547h2.034l.255.2547c.255 1.525 1.272 2.0328 2.798 2.0328 3.562 0 3.562-4.0656 3.562-5.5906h-.255s-1.017 1.2703-3.561 1.2703c-3.308 0-5.597-2.2867-5.597-5.84454 0-3.81173 2.544-5.84455 5.851-5.84455 4.07 0 6.36 2.03282 6.36 8.63987 0 7.11562-2.29 9.65702-6.614 9.65702z"/><path d="m76.8454 29.0986h-4.07l-.2549.2539v5.0828l.2549.2539h4.07c2.2898 0 3.3066-.7625 3.3066-2.7953s-1.0168-2.7953-3.3066-2.7953zm2.0349 7.6241v.254l3.5616 5.5906v1.7789l-.2549.2539h-1.0168l-.5091-.2539-4.579-7.1156-.5091-.2539h-2.7976l-.2549.2539v7.1156l-.2542.2539h-2.0349l-.2549-.2539v-17.2804l.2549-.254h6.614c3.5615 0 5.8507 1.5243 5.8507 5.0821 0 2.7953-1.5259 4.3203-3.8158 4.8288z"/><path d="m97.1972 44.6001h-11.4472l-.2542-.2539v-17.2804l.2542-.254h11.4472l.2542.254v1.7789l-.2542.2539h-8.9032l-.2542.2539v4.8289l.2542.2539h8.3948l.2549.2539v1.7789l-.2549.2546h-8.3948l-.2542.254v5.082l.2542.254h8.9032l.2542.2546v1.7789z"/><path d="m107.119 44.8544c-4.325 0-7.1225-2.0329-7.1225-5.8446l.2545-.2546h2.034l.255.2546c0 2.5407 1.781 3.5571 4.833 3.5571 2.29 0 4.071-.7618 4.071-2.7953 0-2.2868-1.527-2.7946-5.088-3.3032-3.562-.5085-5.851-2.0328-5.851-5.0828 0-2.2867 1.78-4.8281 6.36-4.8281 3.815 0 6.614 1.525 6.614 5.3367l-.255.2539h-2.035l-.254-.2539c0-2.0335-1.018-3.0492-4.325-3.0492-2.289 0-3.561 1.0157-3.561 2.5406 0 2.0329 1.272 2.5414 4.833 3.05 3.562.5078 6.106 1.7782 6.106 5.336 0 2.7953-2.035 5.0828-6.869 5.0828z"/><path d="m123.656 29.0986h-4.325l-.254.2539v5.0828l.254.2539h4.325c2.29 0 3.306-.7625 3.306-2.7953s-1.016-2.7953-3.306-2.7953zm0 7.8781h-4.325l-.254.2539v7.1156l-.255.2539h-2.035l-.254-.2539v-17.2804l.254-.254h6.869c3.561 0 5.85 1.5243 5.85 5.0821s-2.544 5.0828-5.85 5.0828z"/><path d="m138.156 42.5672c2.798 0 4.07-2.2875 4.07-6.861 0-4.5749-1.272-6.8616-4.07-6.8616h-.254c-2.798 0-4.071 2.2867-4.071 6.8616 0 4.5735 1.273 6.861 4.071 6.861zm-.254 2.2875c-4.325 0-6.615-3.05-6.615-9.1485 0-6.0992 2.29-9.1484 6.615-9.1484h.254c4.325 0 6.614 3.0492 6.614 9.1484 0 6.0985-2.289 9.1485-6.614 9.1485z"/><path d="m159.271 44.6001h-2.289l-.508-.2539-6.106-12.4523h-.254v12.4523l-.255.2539h-2.035l-.254-.2539v-17.2804l.254-.254h2.29l.508.254 6.106 12.4516h.254v-12.4516l.254-.254h2.035l.255.254v17.2804z"/><path d="m169.194 44.8544c-4.325 0-7.123-2.0329-7.123-5.8446l.254-.2546h2.036l.254.2546c0 2.5407 1.78 3.5571 4.833 3.5571 2.29 0 4.071-.7618 4.071-2.7953 0-2.2868-1.527-2.7946-5.088-3.3032-3.562-.5085-5.851-2.0328-5.851-5.0828 0-2.2867 1.781-4.8281 6.36-4.8281 3.815 0 6.614 1.525 6.614 5.3367l-.255.2539h-2.035l-.255-.2539c0-2.0335-1.017-3.0492-4.324-3.0492-2.29 0-3.561 1.0157-3.561 2.5406 0 2.0329 1.271 2.5414 4.833 3.05 3.562.5078 6.106 1.7782 6.106 5.336 0 2.7953-2.035 5.0828-6.869 5.0828z"/><path d="m190.308 44.6001h-11.447l-.254-.2539v-17.2804l.254-.254h11.447l.255.254v1.7789l-.255.2539h-8.903l-.254.2539v4.8289l.254.2539h8.395l.254.2539v1.7789l-.254.2546h-8.395l-.254.254v5.082l.254.254h8.903l.255.2546v1.7789z"/></g><path d="m18.908 32.0041v12.5885h6.3009v-12.5885-.0007l-.9359-5.6105 4.3959 3.6152 10.914 6.295 3.1504-5.4509-10.914-6.295-5.3324-1.9952 5.3324-1.996 10.914-6.2942-3.1504-5.45091-10.914 6.29421-4.3959 3.6153.9359-5.6105v-.0007-12.588499h-6.3009v12.588499.0007l.9358 5.6105-4.3958-3.6153-10.914-6.29421-3.15043 5.45091 10.91403 6.2942 5.3323 1.996-5.3323 1.9952-10.91403 6.295 3.15043 5.4509 10.914-6.295 4.3958-3.6152-.9358 5.6105zm-1.998-24.64435-3.1505-5.4509-5.45662 3.14713 3.15042 5.45092zm18.904-2.30377-5.4567-3.14713-3.1504 5.4509 5.4566 3.14715zm1.998 20.65312h6.3009v-6.2942h-6.3009zm-10.6051 12.0551 3.1504 5.4509 5.4567-3.1471-3.1505-5.4509zm-18.90402 2.3038 5.45662 3.1471 3.1505-5.4509-5.4567-3.1471zm-8.29891271-14.3589h6.30087271v-6.2942h-6.30087271zm51.13053271-25.176981v25.178381l1.0501 6.295h4.2006l1.0501-6.295v-25.178381zm0 44.061881h6.3008v-6.2943h-6.3008z" fill="#0ac161"/></g></svg>