<svg width="337" height="63" viewBox="0 0 337 63" fill="none" xmlns="http://www.w3.org/2000/svg">
<path fill-rule="evenodd" clip-rule="evenodd" d="M119.082 26.9518C123.038 26.9518 124.521 24.4798 124.521 21.0188C124.521 16.5688 122.048 15.0858 119.082 15.0858C116.116 15.0858 114.138 17.0638 114.138 21.0188C114.138 24.9738 116.116 26.9518 119.082 26.9518ZM124.521 30.9068H124.026C124.026 30.9068 122.048 32.8848 118.093 32.8848C112.16 32.8848 107.216 27.9408 107.216 21.0188C107.216 13.6018 112.16 9.15283 119.576 9.15283C127.982 9.15283 131.937 15.5798 131.937 25.9628C131.937 38.3238 128.476 44.7508 119.082 44.7508C112.16 44.7508 108.699 41.2908 108.205 36.3458L108.699 35.8518H114.632L115.126 36.3458C115.621 37.8288 116.61 38.8178 119.082 38.8178C124.026 38.8178 124.521 33.3798 124.521 30.9068Z" fill="white"/>
<path fill-rule="evenodd" clip-rule="evenodd" d="M161.601 34.3685H137.869L137.374 33.8735V28.9295L137.869 28.4355H161.601L162.095 28.9295V33.8735L161.601 34.3685Z" fill="white"/>
<path fill-rule="evenodd" clip-rule="evenodd" d="M4.88024 18.2416C2.97324 14.2086 5.95624 13.6516 8.63824 11.7886C9.96224 11.0016 12.2312 9.29962 15.4452 6.68362C17.9022 4.48362 20.1252 5.19362 21.1012 6.71862C22.7662 9.32062 21.6272 10.7936 19.4162 12.6396C16.8642 14.8466 14.6422 16.6426 12.7512 18.0286C9.39824 20.4876 6.98324 21.8016 4.88024 18.2416Z" fill="white"/>
<path fill-rule="evenodd" clip-rule="evenodd" d="M16.3808 35.2696C20.1138 34.6476 19.1198 32.4846 17.5628 33.6036C16.9188 34.0666 16.6168 34.5936 16.3808 35.2696ZM9.57376 35.3046C9.93576 34.9526 10.2898 34.4576 9.99876 34.0406C9.67176 33.5506 8.99576 33.8076 8.52176 34.1586C7.27076 35.0866 8.25276 36.5856 9.57376 35.3046ZM14.2298 28.5336C16.0108 27.0676 17.9958 26.3436 20.1858 26.3586C23.8938 26.4216 26.4558 28.6736 26.5208 32.8356C26.5208 39.4236 17.1688 43.6766 10.4248 43.7546C3.59276 43.6516 0.482756 40.2376 0.00075594 35.9546C-0.0622441 31.2916 3.82076 26.7846 8.58076 26.4296C11.2768 26.2536 12.3358 26.6066 14.2298 28.5336Z" fill="white"/>
<path fill-rule="evenodd" clip-rule="evenodd" d="M35.9523 19.5241C34.8833 17.3031 35.5913 15.7441 36.7323 15.1631C38.9013 14.0581 42.8453 11.0951 46.0213 8.46208C48.4253 6.32508 50.5823 7.14108 51.4713 8.59908C52.6803 10.5821 52.4593 12.8441 49.7313 14.7261C43.4303 19.4001 41.1063 21.2911 39.3323 21.6751C37.7183 21.7011 36.8753 21.2941 35.9523 19.5241ZM30.1853 12.6701C29.1583 10.2601 29.8893 8.85308 30.9653 8.27308C31.7843 7.83208 32.7213 7.24909 33.7773 6.52409C35.0543 5.73609 37.2203 4.09008 40.2773 1.58408C42.6013 -0.552915 44.6973 0.250085 45.5973 1.50608C46.8143 3.20608 46.9933 5.77408 43.9883 7.89508C41.5933 9.61308 39.4973 11.1371 37.7013 12.4691C35.9043 13.8001 34.5343 14.5601 33.5883 14.7501C32.0453 14.8721 31.2143 14.5581 30.1853 12.6701Z" fill="white"/>
<path fill-rule="evenodd" clip-rule="evenodd" d="M37.6144 38.7203C35.9584 39.8533 34.7084 41.8123 36.6094 42.8213C37.5624 43.3273 39.0774 43.3243 44.9414 43.0693C46.2684 43.0013 47.0674 44.4513 47.2344 45.6223C47.4074 46.7723 47.0214 47.7923 46.0764 48.6823C44.2884 50.3653 29.4534 51.4953 28.4204 42.3133C28.5144 39.9963 29.7514 37.8223 32.1314 35.7893C31.4334 34.1283 31.5204 32.5533 33.4784 31.0973C34.9284 30.0193 37.0664 30.1153 37.9804 30.4833C38.5874 30.7273 39.1274 31.2913 39.5994 32.1733C40.5474 32.7473 42.3934 32.3943 42.6014 31.2753C43.0434 29.5563 39.6474 29.6663 39.6474 27.8953C39.7734 26.8873 40.5534 26.2253 41.9874 25.9093C44.6124 25.5963 44.4824 24.8013 46.4064 24.5393C47.1944 24.5393 48.2604 25.0643 48.9364 26.1693C49.7474 27.5483 49.7154 28.1823 48.4164 29.4083C50.4864 31.8383 49.0624 35.7503 46.3834 37.3733C43.8474 38.9083 40.5274 39.1973 37.6144 38.7203Z" fill="white"/>
<path fill-rule="evenodd" clip-rule="evenodd" d="M51.3831 60.0268C50.9731 59.1758 50.7681 58.5218 50.7681 58.0648C50.8471 56.8828 51.2921 56.0678 52.1041 55.6188C52.9151 55.1698 53.8571 54.5908 54.9281 53.8818C56.2361 53.0778 58.4101 51.4308 61.4521 48.9418C62.4441 48.0278 63.2871 47.5708 63.9811 47.5708C66.1871 47.5868 67.3761 48.9338 67.5501 51.6128C67.5501 52.9358 66.7461 54.1418 65.1391 55.2288C62.7751 56.9458 60.6871 58.4748 58.8751 59.8138C57.0631 61.1528 55.6921 61.9178 54.7631 62.1068C53.7861 62.1698 53.0691 62.0078 52.6121 61.6218C52.1551 61.2358 51.7451 60.7038 51.3831 60.0268Z" fill="white"/>
<path fill-rule="evenodd" clip-rule="evenodd" d="M66.5792 36.3333C63.6162 39.4373 61.0052 41.8443 58.7442 43.5543C56.0392 45.5993 54.0222 47.2943 51.7712 44.9953C50.0852 43.2733 49.7962 40.7723 52.9412 38.4133C62.3652 33.0373 65.3452 26.3823 68.6592 26.3823C72.3202 26.3823 73.6812 32.5123 73.7412 36.2153C73.3792 39.6973 72.2992 45.5443 68.7772 45.6453C65.9152 45.6453 64.7592 44.3523 64.7592 42.6203C64.7592 42.6073 66.2682 37.8463 66.5792 36.3333Z" fill="white"/>
<path fill-rule="evenodd" clip-rule="evenodd" d="M179.489 13.723C179.489 14.485 180.079 14.946 180.955 14.538C182.129 13.992 182.007 13.12 182.018 13.085C182.018 12.392 181.734 12.045 181.167 12.045C180.521 12.045 179.547 12.683 179.489 13.629V13.723ZM172.398 11.667C173.307 8.77898 175.951 6.42198 178.733 5.24998C182.841 3.51898 188.096 4.94498 189.582 9.71698C191.951 17.357 182.43 23.724 176.156 21.145C171.722 19.324 171.847 13.422 172.398 11.667Z" fill="white"/>
<path fill-rule="evenodd" clip-rule="evenodd" d="M181.406 38.4502C181.516 38.6242 182.217 38.7502 183.51 38.8282C184.801 38.9072 185.96 39.0492 186.984 39.2542C187.866 39.4432 188.477 39.8452 188.816 40.4592C189.154 41.0742 189.324 41.7832 189.324 42.5862C189.292 44.6982 188.355 45.9582 186.511 46.3682C185.739 46.4152 184.479 46.3242 182.73 46.0962C180.981 45.8682 178.885 45.5252 176.442 45.0682C173.07 44.4852 171.424 43.1932 171.503 41.1922C171.518 40.1682 172.133 39.0252 173.346 37.7652L174.906 36.2522C173.189 35.4642 172.18 34.8612 171.881 34.4442C171.581 34.0262 171.432 33.5892 171.432 33.1322C171.432 32.6442 171.562 32.1832 171.822 31.7492C172.082 31.3162 172.381 30.9022 172.72 30.5082C173.059 30.1152 173.401 29.7522 173.748 29.4212C174.094 29.0902 174.363 28.7912 174.552 28.5232C175.528 27.1052 176.639 26.4042 177.884 26.4192C178.577 26.4192 179.291 26.7032 180.023 27.2702C180.756 27.8382 181.154 28.5862 181.217 29.5162C181.217 29.8942 181.158 30.2212 181.04 30.4972C180.921 30.7722 180.626 31.2492 180.153 31.9272C181.303 32.2262 182.162 32.5492 182.73 32.8962C183.297 33.2422 183.651 33.8732 183.793 34.7862C183.793 35.1962 183.631 35.6772 183.309 36.2282C182.986 36.7802 182.351 37.5202 181.406 38.4502Z" fill="white"/>
<path fill-rule="evenodd" clip-rule="evenodd" d="M195.434 60.04C195.024 59.189 194.82 58.535 194.82 58.078C194.898 56.896 195.343 56.081 196.155 55.632C196.966 55.183 197.908 54.604 198.979 53.895C200.287 53.091 202.462 51.444 205.503 48.955C206.496 48.041 207.338 47.584 208.032 47.584C210.238 47.6 211.427 48.947 211.601 51.626C211.601 52.949 210.797 54.155 209.19 55.242C206.827 56.959 204.738 58.488 202.927 59.827C201.114 61.166 199.744 61.931 198.814 62.12C197.837 62.183 197.12 62.021 196.663 61.635C196.206 61.249 195.796 60.717 195.434 60.04Z" fill="white"/>
<path fill-rule="evenodd" clip-rule="evenodd" d="M206.166 33.3451C206.166 32.8101 205.764 32.6201 204.961 32.7781C204.244 32.8801 203.854 33.3591 203.826 33.8181C203.826 34.2281 204.125 34.4321 204.724 34.4321C205.6 34.1991 205.676 34.1291 206.166 33.3451ZM193.663 42.6341C195.884 41.5471 197.83 40.3021 199.501 38.8991C197.489 37.8841 195.942 36.6771 196.003 34.2201C196.147 29.7691 201.908 26.6051 206.662 26.4431C210.582 26.4431 214.283 28.7871 214.249 32.6831C214.265 33.8651 213.178 35.5351 210.988 37.6941C208.046 40.5931 203.7 44.6861 200.659 47.1011C197.999 49.1271 194.719 51.2431 192.776 48.3661C191.069 45.8381 191.566 44.1251 193.663 42.6341Z" fill="white"/>
<path fill-rule="evenodd" clip-rule="evenodd" d="M228.823 8.6174C227.096 9.5754 224.569 12.2024 224.793 13.8524C224.975 15.1814 227.029 14.8194 228.315 14.4434C229.985 14.4434 230.868 15.6884 230.962 18.1774C230.962 23.7834 219.093 23.3584 217.371 15.8144C216.475 10.0484 220.787 5.2914 225.774 2.3304C229.212 0.288398 234.321 -1.1886 238.088 1.4204C241.027 3.4574 242.333 10.1444 237.296 13.5214C235.434 14.5644 234.011 14.6104 231.907 12.6234C231.249 11.2814 231.207 10.7704 231.978 9.6924C234.048 8.0084 233.853 5.8274 228.823 8.6174Z" fill="white"/>
<path fill-rule="evenodd" clip-rule="evenodd" d="M225.08 34.8578C227.207 33.2508 229.066 31.7778 230.658 30.4378C232.249 29.0988 233.494 27.9878 234.392 27.1048C236.693 25.1138 239.799 27.4958 239.852 30.2018C239.764 31.6418 237.742 33.7028 236.685 34.6928C235.677 35.6378 234.491 36.6507 233.128 37.7297C231.765 38.8087 230.288 39.8848 228.696 40.9558C225.966 42.7898 221.74 45.3098 219.136 43.7798C215.089 41.4048 218.459 37.0708 218.651 31.9268C218.651 28.4438 218.878 27.6838 219.975 27.0228C220.589 26.6528 221.346 26.4668 222.244 26.4668C226.047 26.4668 226.51 30.9518 225.245 34.4558L225.08 34.8578Z" fill="white"/>
<path fill-rule="evenodd" clip-rule="evenodd" d="M282.718 44.373V62.121H291.592V44.373V44.372L290.274 36.462L296.465 41.559L311.836 50.434L316.273 42.749L300.902 33.874L293.392 31.061L300.902 28.247L316.273 19.373L311.836 11.688L296.465 20.562L290.274 25.659L291.592 17.749V17.748V0H282.718V17.748V17.749L284.036 25.659L277.845 20.562L262.474 11.688L258.037 19.373L273.408 28.247L280.918 31.061L273.408 33.874L258.037 42.749L262.474 50.434L277.845 41.559L284.036 36.462L282.718 44.372V44.373ZM279.904 9.628L275.467 1.943L267.782 6.38L272.219 14.065L279.904 9.628ZM306.528 6.38L298.843 1.943L294.406 9.628L302.091 14.065L306.528 6.38ZM309.342 35.498H318.216V26.624H309.342V35.498ZM294.406 52.494L298.843 60.179L306.528 55.742L302.091 48.057L294.406 52.494ZM267.782 55.742L275.467 60.179L279.904 52.494L272.219 48.057L267.782 55.742ZM256.094 35.498H264.968V26.624H256.094V35.498ZM328.105 0.00200003V35.5L329.584 44.375H335.5L336.979 35.5V0.00200003H328.105ZM328.105 62.123H336.979V53.249H328.105V62.123Z" fill="white"/>
</svg>
