<svg height="171" viewBox="0 0 522 171" width="522" xmlns="http://www.w3.org/2000/svg"><g fill="none" fill-rule="evenodd" transform="translate(0 .344)"><path d="m521.708 147.592c0 12.734-10.322 23.064-23.056 23.064h-475.59c-12.735 0-23.062-10.33-23.062-23.064v-124.531c0-12.734 10.327-23.061 23.062-23.061h475.59c12.734 0 23.056 10.327 23.056 23.061z" fill="#1a1919"/><g fill="#fffffe"><path d="m136.047 112.803c-2.762 6.122-4.084 8.854-7.639 14.264-4.963 7.555-11.955 16.961-20.619 17.04-7.701.071-9.678-5.012-20.127-4.954-10.449.057-12.631 5.043-20.333 4.97373-8.664-.08073-15.291-8.57573-20.253-16.12773-13.875-21.121-15.325-45.908-6.768-59.085 6.082-9.365 15.672-14.847 24.694-14.847 9.184 0 14.957 5.037 22.551 5.037 7.365 0 11.855-5.045 22.472-5.045 8.026 0 16.53 4.369 22.59 11.928-19.853 10.879-16.629 39.236 3.432 46.816"/><path d="m101.971 45.622c3.855-4.951 6.787-11.946 5.724-19.092-6.3.434-13.674 4.443-17.978 9.67-3.907 4.746-7.131 11.784-5.875 18.623 6.879.213 13.996-3.896 18.129-9.201"/><path d="m183.032 78.214c.671 2.611 1.395 5.323 2.326 8.253l5.356 15.512h-15.244l5.281-15.613c.805-2.531 1.569-5.266 2.281-8.152zm-4.716-9.62-19.875 58.504h9.101l5.934-17.964h19.244l6.102 17.964h9.353l-19.961-58.504z"/><path d="m231.689 91.089c7.891 0 11.422 7.309 11.422 14.552 0 9.342-4.506 15.146-11.758 15.146-4.951 0-9.234-3.37-10.428-8.214-.205-.75-.314-1.744-.314-2.865v-7.118c0-.645.144-1.427.281-2.185.044-.242.092-.484.127-.719 1.32-5.064 5.702-8.597 10.67-8.597zm2.205-7.329c-6.029 0-10.857 2.328-14.072 6.751l-.353-5.819h-8.096l.048.744c.239 3.625.338 7.615.338 13.344v45.094h8.852v-21.044c2.746 3.286 7.131 5.199 12.099 5.199 5.174 0 9.94-2.026 13.413-5.702 3.877-4.098 5.922-9.988 5.922-17.026 0-6.218-1.776-11.595-5.142-15.545-3.297-3.867-7.915-5.996-13.009-5.996z"/><path d="m277.271 91.089c7.887 0 11.419 7.309 11.419 14.552 0 9.342-4.509 15.146-11.757 15.146-4.949 0-9.236-3.37-10.428-8.214-.205-.75-.312-1.744-.312-2.865v-7.118c0-.649.142-1.434.282-2.193.044-.238.088-.476.128-.711 1.315-5.064 5.699-8.597 10.668-8.597zm2.203-7.329c-6.027 0-10.855 2.328-14.073 6.751l-.353-5.819h-8.093l.045.744c.24 3.629.341 7.615.341 13.344v45.094h8.852v-21.044c2.746 3.286 7.128 5.199 12.096 5.199 5.173 0 9.94-2.026 13.419-5.702 3.871-4.098 5.918-9.988 5.918-17.026 0-6.218-1.779-11.595-5.145-15.545-3.295-3.867-7.913-5.996-13.007-5.996z"/><path d="m336.577 93.384c-8.261-3.2-10.908-5.715-10.908-10.364 0-3.914 3.11-7.861 10.061-7.861 5.734 0 9.402 1.994 10.391 2.608l.75.463 2.498-7.387-.494-.289c-1.483-.869-5.709-2.891-12.89-2.891-11.288 0-19.172 6.664-19.172 16.202 0 7.692 4.937 13.069 15.536 16.923 7.512 2.807 10.308 5.683 10.308 10.614 0 5.581-4.314 9.044-11.251 9.044-4.519 0-9.169-1.317-12.758-3.617l-.768-.492-2.376 7.557.437.289c3.342 2.232 9.631 3.846 14.959 3.846 15.213 0 20.607-9.276 20.607-17.22 0-8.189-4.324-13.24-14.93-17.425"/><path d="m367.441 74.613-8.682 2.726v7.353h-6.355v7.074h6.355v21.67c0 5.239 1.002 8.91 3.065 11.231 1.978 2.168 5.019 3.362 8.564 3.362 3.346 0 5.723-.661 6.842-1.057l.496-.175-.424-7.087-.849.26c-1.12.344-2.268.476-4.118.476-3.429 0-4.894-2.17-4.894-7.265v-21.415h10.678v-7.074h-10.678z"/><path d="m399.798 90.749c7.963 0 11.588 7.762 11.588 14.978 0 8.873-4.947 15.314-11.756 15.314h-.086c-6.712 0-11.586-6.333-11.586-15.058 0-7.582 3.663-15.234 11.84-15.234zm.256-6.989c-12.385 0-21.033 9.245-21.033 22.473 0 12.834 8.369 21.796 20.355 21.796h.082c10.133 0 21.034-7.059 21.034-22.558 0-6.301-1.95-11.714-5.641-15.656-3.713-3.959-8.832-6.055-14.797-6.055z"/><path d="m447.603 84.172-.531-.135c-.78-.195-1.416-.277-2.201-.277-4.631 0-8.786 2.727-11.098 7.126l-.26-6.194h-7.943l.051.744c.236 3.504.334 7.438.334 12.746l-.082 28.916h8.851v-22.558c0-1.229.084-2.39.244-3.432.998-5.418 4.655-8.92 9.313-8.92.906 0 1.619.074 2.375.149l.947.097z"/><path d="m466.914 90.411c2.695 0 4.882.834 6.498 2.478 2.546 2.592 2.992 6.409 3.048 8.241h-20.187c.822-5.112 4.019-10.719 10.641-10.719zm.589-6.735c-11.783 0-20.013 9.416-20.013 22.897 0 12.981 8.187 21.372 20.861 21.372 6.664 0 11.301-1.463 14.014-2.688l.533-.241-1.701-6.595-.739.297c-2.412.982-5.619 1.984-11.089 1.984-3.846 0-12.715-1.269-13.258-12.834l28.57.086.115-.566c.18-.899.266-2.111.266-3.694 0-9.234-4.598-20.018-17.559-20.018z"/><path d="m162.458 53.156c1.004.164 2.465.164 4.018.164 8.49.04 13.1-4.272 13.1-11.749.046-6.614-4.063-10.682-12.461-10.682-2.053 0-3.607.166-4.657.37zm-4.017-24.526c2.466-.329 5.342-.575 8.49-.575 5.707 0 9.77 1.151 12.463 3.411 2.784 2.258 4.383 5.503 4.383 9.982 0 4.519-1.599 8.215-4.428 10.763-2.922 2.588-7.67 3.985-13.649 3.985-2.876 0-5.204-.082-7.259-.329z"/><path d="m198.15 53.689c3.834 0 6.711-3.245 6.711-7.764 0-3.369-1.872-7.6-6.619-7.6-4.703 0-6.757 3.944-6.757 7.724 0 4.354 2.739 7.64 6.619 7.64zm-.137 2.712c-5.935 0-10.59-3.943-10.59-10.228 0-6.656 4.884-10.559 10.954-10.559 6.347 0 10.636 4.148 10.636 10.188 0 7.395-5.705 10.599-10.953 10.599z"/><path d="m215.369 36.065 2.966 10.067c.593 2.217 1.188 4.312 1.598 6.367h.137c.502-2.014 1.232-4.15 1.963-6.326l3.606-10.108h3.379l3.424 9.942c.82 2.342 1.46 4.478 1.962 6.492h.137c.365-2.014.959-4.109 1.689-6.45l3.148-9.984h3.973l-7.121 19.884h-3.652l-3.377-9.489c-.776-2.26-1.416-4.232-1.965-6.574h-.09c-.548 2.383-1.232 4.478-2.01 6.615l-3.559 9.448h-3.652l-6.666-19.884z"/><path d="m247.371 41.448c0-2.096-.046-3.738-.184-5.383h3.562l.227 3.247h.092c1.096-1.849 3.651-3.698 7.303-3.698 3.058 0 7.805 1.643 7.805 8.463v11.872h-4.014v-11.462c0-3.204-1.327-5.914-5.115-5.914-2.601 0-4.657 1.684-5.385 3.696-.183.452-.275 1.109-.275 1.685v11.995h-4.016z"/><path d="m272.705 55.949h4.017v-29.167h-4.017z"/><path d="m292.515 53.689c3.835 0 6.712-3.245 6.712-7.764 0-3.369-1.872-7.6-6.618-7.6-4.703 0-6.758 3.944-6.758 7.724 0 4.354 2.739 7.64 6.62 7.64zm-.135 2.712c-5.933 0-10.589-3.943-10.589-10.228 0-6.656 4.881-10.559 10.955-10.559 6.343 0 10.634 4.148 10.634 10.188 0 7.395-5.706 10.599-10.955 10.599z"/><path d="m320.091 45.802c-4.383-.082-9.358.617-9.358 4.478 0 2.383 1.734 3.451 3.743 3.451 2.921 0 4.793-1.643 5.431-3.328.139-.369.184-.781.184-1.15zm3.924 5.382c0 1.725.092 3.408.32 4.765h-3.607l-.365-2.505h-.135c-1.187 1.561-3.608 2.957-6.756 2.957-4.472 0-6.756-2.834-6.756-5.711 0-4.806 4.746-7.435 13.282-7.394v-.411c0-1.642-.5-4.641-5.02-4.6-2.102 0-4.245.532-5.797 1.477l-.914-2.422c1.826-1.027 4.519-1.726 7.305-1.726 6.801 0 8.443 4.148 8.443 8.135z"/><path d="m345.517 44.159c0-.493-.045-1.068-.184-1.561-.591-2.259-2.783-4.149-5.795-4.149-4.155 0-6.621 3.286-6.621 7.642 0 4.066 2.239 7.392 6.529 7.392 2.694 0 5.159-1.642 5.887-4.312.139-.493.184-.987.184-1.561zm4.016-17.377v24.031c0 1.767.049 3.779.183 5.136h-3.605l-.182-3.45h-.092c-1.232 2.218-3.88 3.902-7.486 3.902-5.342 0-9.496-4.066-9.496-10.106-.046-6.656 4.566-10.681 9.905-10.681 3.426 0 5.708 1.439 6.667 2.999h.09v-11.831z"/><path d="m375.007 53.689c3.834 0 6.709-3.245 6.709-7.764 0-3.369-1.869-7.6-6.617-7.6-4.703 0-6.756 3.944-6.756 7.724 0 4.354 2.739 7.64 6.617 7.64zm-.138 2.712c-5.934 0-10.59-3.943-10.59-10.228 0-6.656 4.887-10.559 10.955-10.559 6.348 0 10.637 4.148 10.637 10.188 0 7.395-5.707 10.599-10.954 10.599z"/><path d="m390.941 41.448c0-2.096-.047-3.738-.184-5.383h3.561l.23 3.247h.09c1.096-1.849 3.651-3.698 7.303-3.698 3.059 0 7.807 1.643 7.807 8.463v11.872h-4.018v-11.462c0-3.204-1.322-5.914-5.113-5.914-2.6 0-4.657 1.684-5.387 3.696-.182.452-.273 1.109-.273 1.685v11.995h-4.016z"/><path d="m430.792 31.301v4.764h5.75v2.752h-5.75v10.724c0 2.464.778 3.861 3.014 3.861 1.094 0 1.735-.082 2.328-.246l.182 2.752c-.775.246-2.008.493-3.561.493-1.871 0-3.379-.575-4.338-1.519-1.095-1.11-1.55-2.877-1.55-5.219v-10.846h-3.424v-2.752h3.424v-3.655z"/><path d="m441.064 26.782h4.016v12.406h.093c.637-1.027 1.641-1.971 2.877-2.547 1.186-.656 2.598-1.027 4.108-1.027 2.965 0 7.713 1.643 7.713 8.504v11.831h-4.016v-11.42c0-3.246-1.324-5.916-5.113-5.916-2.602 0-4.61 1.644-5.387 3.615-.229.493-.275 1.027-.275 1.726v11.995h-4.016z"/><path d="m480.416 44.036c.042-2.26-1.051-5.875-5.526-5.875-4.109 0-5.844 3.369-6.162 5.875zm-11.735 2.588c.094 4.888 3.518 6.902 7.533 6.902 2.875 0 4.657-.453 6.119-.987l.731 2.547c-1.418.575-3.883 1.274-7.397 1.274-6.757 0-10.865-4.068-10.865-10.023 0-6.039 3.973-10.764 10.406-10.764 7.215 0 9.084 5.71 9.084 9.367 0 .739-.042 1.315-.134 1.725z"/></g></g></svg>