<?xml version="1.0" encoding="UTF-8"?>
<svg width="512px" height="168px" viewBox="0 0 512 168" version="1.1" xmlns="http://www.w3.org/2000/svg" xmlns:xlink="http://www.w3.org/1999/xlink">
    <!-- Generator: Sketch 64 (93537) - https://sketch.com -->
    <title>Group 6 Copy</title>
    <desc>Created with Sketch.</desc>
    <defs>
        <path d="M1.88270412,0.10461602 L57.133,54.8903329 L1.41666174,110.135294 C0.552790982,109.845632 0,108.992697 0,107.740333 L0,107.740333 L0,3.08933288" id="path-1"></path>
        <linearGradient x1="29.5954342%" y1="-1.59796556%" x2="29.5954342%" y2="101.176441%" id="linearGradient-3">
            <stop stop-color="#87C8B2" offset="0%"></stop>
            <stop stop-color="#2C729D" offset="100%"></stop>
        </linearGradient>
        <path d="M1.88270412,0.10461602 C2.75717376,-0.140400219 3.84261785,0.0435567851 4.93,0.671332879 L4.878,0.642332879 L23.9019445,11.6257351 C35.7985611,18.4951275 48.9417989,26.0845118 49.4034771,26.3511017 L49.416,26.3583329 L72.479,39.6733329 L57.133,54.8903329" id="path-4"></path>
        <linearGradient x1="-0.000310804585%" y1="23.9090051%" x2="75.0895589%" y2="23.9090051%" id="linearGradient-6">
            <stop stop-color="#53B8A0" offset="0%"></stop>
            <stop stop-color="#DBE596" offset="100%"></stop>
        </linearGradient>
        <path d="M57.133,54.8903329 L72.478,70.1053329 L49.416,83.4193329 C49.416,83.4193329 16.6865279,102.316931 6.6886321,108.091236 L3.87802052,109.714793 C2.945476,110.245559 2.08732325,110.360172 1.41666174,110.135294" id="path-7"></path>
        <linearGradient x1="37.5441578%" y1="49.7896003%" x2="37.5441578%" y2="101.549612%" id="linearGradient-9">
            <stop stop-color="#7D4589" offset="0%"></stop>
            <stop stop-color="#DA3E3E" offset="100%"></stop>
        </linearGradient>
        <path d="M72.479,39.6733329 C72.924119,39.9321671 92.6333778,51.3924773 94.803,52.5623329 C96.998,53.7443329 97.248,55.8043329 94.647,57.3073329 L94.662,57.2983329 L91.8583895,58.9169832 C86.001478,62.2979731 73.7172378,69.3898967 72.5651316,70.0550301 L72.478,70.1053329 L57.133,54.8903329" id="path-10"></path>
        <linearGradient x1="80.7936518%" y1="35.986719%" x2="80.7936518%" y2="63.5904861%" id="linearGradient-12">
            <stop stop-color="#F7C374" offset="0%"></stop>
            <stop stop-color="#E88172" offset="100%"></stop>
        </linearGradient>
    </defs>
    <g id="Page-1" stroke="none" stroke-width="1" fill="none" fill-rule="evenodd">
        <g id="Group-6-Copy" transform="translate(0.000000, 0.593000)">
            <path d="M488.875,167.311 L22.61,167.311 C10.124,167.311 0,157.185 0,144.699 L0,22.61 C0,10.125 10.124,0 22.61,0 L488.875,0 C501.359,0 511.48,10.125 511.48,22.61 L511.48,144.699 C511.48,157.185 501.359,167.311 488.875,167.311 Z" id="Fill-62" fill="#1A1919"></path>
            <g id="Group-5" transform="translate(38.000000, 33.407000)">
                <g id="Group-4">
                    <g id="Group-101">
                        <g id="Group-3" transform="translate(0.365000, 0.565667)">
                            <mask id="mask-2" fill="white">
                                <use xlink:href="#path-1"></use>
                            </mask>
                            <g id="Clip-100"></g>
                            <path d="M72.479,39.6733329 L49.416,26.3583329 C49.416,26.3583329 7.401,2.09733288 4.93,0.671332879 C2.46,-0.754667121 0,0.109332879 0,3.08933288 C0,8.05433288 0,54.8893329 0,54.8893329 C0,54.8893329 0,105.504333 0,107.740333 C0,109.974333 1.759,110.937333 3.905,109.699333 C6.05,108.458333 49.416,83.4193329 49.416,83.4193329 L72.478,70.1053329 C72.478,70.1053329 92.046,58.8083329 94.647,57.3073329 C97.248,55.8043329 96.998,53.7443329 94.803,52.5623329 C92.609,51.3793329 72.479,39.6733329 72.479,39.6733329" id="Fill-99" fill="url(#linearGradient-3)" mask="url(#mask-2)"></path>
                            <mask id="mask-5" fill="white">
                                <use xlink:href="#path-4"></use>
                            </mask>
                            <g id="Clip-103"></g>
                            <path d="M72.479,39.6733329 L49.416,26.3583329 C49.416,26.3583329 7.401,2.09733288 4.93,0.671332879 C2.46,-0.754667121 0,0.109332879 0,3.08933288 C0,8.05433288 0,54.8893329 0,54.8893329 C0,54.8893329 0,105.504333 0,107.740333 C0,109.974333 1.759,110.937333 3.905,109.699333 C6.05,108.458333 49.416,83.4193329 49.416,83.4193329 L72.478,70.1053329 C72.478,70.1053329 92.046,58.8083329 94.647,57.3073329 C97.248,55.8043329 96.998,53.7443329 94.803,52.5623329 C92.609,51.3793329 72.479,39.6733329 72.479,39.6733329" id="Fill-102" fill="url(#linearGradient-6)" mask="url(#mask-5)"></path>
                            <mask id="mask-8" fill="white">
                                <use xlink:href="#path-7"></use>
                            </mask>
                            <g id="Clip-106"></g>
                            <path d="M72.479,39.6733329 L49.416,26.3583329 C49.416,26.3583329 7.401,2.09733288 4.93,0.671332879 C2.46,-0.754667121 0,0.109332879 0,3.08933288 C0,8.05433288 0,54.8893329 0,54.8893329 C0,54.8893329 0,105.504333 0,107.740333 C0,109.974333 1.759,110.937333 3.905,109.699333 C6.05,108.458333 49.416,83.4193329 49.416,83.4193329 L72.478,70.1053329 C72.478,70.1053329 92.046,58.8083329 94.647,57.3073329 C97.248,55.8043329 96.998,53.7443329 94.803,52.5623329 C92.609,51.3793329 72.479,39.6733329 72.479,39.6733329" id="Fill-105" fill="url(#linearGradient-9)" mask="url(#mask-8)"></path>
                            <mask id="mask-11" fill="white">
                                <use xlink:href="#path-10"></use>
                            </mask>
                            <g id="Clip-109"></g>
                            <path d="M72.479,39.6733329 L49.416,26.3583329 C49.416,26.3583329 7.401,2.09733288 4.93,0.671332879 C2.46,-0.754667121 0,0.109332879 0,3.08933288 C0,8.05433288 0,54.8893329 0,54.8893329 C0,54.8893329 0,105.504333 0,107.740333 C0,109.974333 1.759,110.937333 3.905,109.699333 C6.05,108.458333 49.416,83.4193329 49.416,83.4193329 L72.478,70.1053329 C72.478,70.1053329 92.046,58.8083329 94.647,57.3073329 C97.248,55.8043329 96.998,53.7443329 94.803,52.5623329 C92.609,51.3793329 72.479,39.6733329 72.479,39.6733329" id="Fill-108" fill="url(#linearGradient-12)" mask="url(#mask-11)"></path>
                        </g>
                    </g>
                    <g id="Group-104" transform="translate(2.000000, 0.000000)"></g>
                    <g id="Group-107" transform="translate(1.000000, 55.000000)"></g>
                </g>
                <g id="Group-2" transform="translate(117.215000, 0.299000)">
                    <path d="M242.121,47.39 C238.754,47.39 236.32,48.323 234.817,50.186 C233.314,52.051 232.541,55.017 232.5,59.087 L232.5,60.198 C232.5,64.829 233.273,68.141 234.817,70.136 C236.361,72.13 238.836,73.126 242.242,73.126 C245.089,73.126 247.32,71.974 248.934,69.67 C250.546,67.366 251.353,64.188 251.353,60.137 C251.353,56.03 250.546,52.877 248.934,50.682 C247.32,48.487 245.048,47.39 242.121,47.39 Z M242.843,77.304 C240.698,77.304 238.739,76.909 236.966,76.118 C235.193,75.326 233.703,74.108 232.5,72.466 L232.14,72.466 C232.38,74.389 232.5,76.214 232.5,77.936 L232.5,91.495 L227.512,91.495 L227.512,43.753 L231.57,43.753 L232.26,48.262 L232.5,48.262 C233.785,46.458 235.279,45.156 236.982,44.354 C238.685,43.553 240.64,43.151 242.843,43.151 C247.213,43.151 250.586,44.645 252.96,47.632 C255.335,50.618 256.524,54.807 256.524,60.198 C256.524,65.61 255.316,69.813 252.903,72.812 C250.563968,75.7103871 247.349285,77.2058606 243.255327,77.2993267 L242.843,77.304 Z" id="Shape" fill="#F9F8F7"></path>
                    <polygon id="Fill-112" fill="#F9F8F7" points="263.088 76.703 268.078 76.703 268.078 29.923 263.088 29.923"></polygon>
                    <path d="M285.497,73.186 C288.603,73.186 291.042,72.335 292.818,70.632 C294.59,68.929 295.479,66.543 295.479,63.474 L295.479,60.499 L290.486,60.708 C286.518,60.85 283.659,61.465 281.903,62.559 C280.15,63.651 279.273,65.35 279.273,67.655 C279.273,69.458 279.818,70.832 280.911,71.772 C282.004,72.716 283.531,73.186 285.497,73.186 Z M296.771,76.703 L295.778,72.012 L295.537,72.012 C293.894,74.079 292.255,75.477 290.621,76.207 C288.989,76.94 286.949,77.304 284.504,77.304 C281.238,77.304 278.677,76.463 276.823,74.779 C274.968,73.095 274.041,70.702 274.041,67.595 C274.041,61.0360571 279.213001,57.5542749 289.552213,57.1477378 L295.599,56.951 L295.599,54.907 C295.599,52.321 295.042,50.411 293.929,49.18 C292.818,47.946 291.036,47.331 288.593,47.331 C285.846,47.331 282.739,48.173 279.273,49.856 L277.739,46.038 C279.364,45.156 281.141,44.465 283.077,43.964 C285.01,43.463 286.949,43.212 288.894,43.212 C292.822,43.212 295.733,44.083 297.628,45.827 C299.521,47.571 300.468,50.367 300.468,54.216 L300.468,76.703 L296.771,76.703 Z" id="Shape" fill="#F9F8F7"></path>
                    <path d="M303.366,43.753 L308.715,43.753 L315.931,62.544 C317.514,66.834 318.497,69.929 318.879,71.835 L319.119,71.835 C319.38,70.81 319.927,69.063 320.757,66.586 C321.589,64.11 324.311,56.501 328.919,43.753 L334.273,43.753 L320.111,81.273 C318.708,84.981 317.07,87.612 315.194,89.168 C313.321,90.72 311.02,91.495 308.296,91.495 C306.772,91.495 305.269,91.325 303.785,90.985 L303.785,86.987 C304.886,87.227 306.12,87.348 307.484,87.348 C310.911,87.348 313.355,85.425 314.82,81.575 L316.653,76.886 L303.366,43.753" id="Fill-114" fill="#F9F8F7"></path>
                    <path d="M147.499,64.32 C149.016042,62.799125 149.204155,60.7125139 149.217197,59.4481411 L149.218,59.288 C149.218,54.327 146.256,46.608 140.537,46.608 C138.743,46.608 136.816,47.503 135.712,48.884 C134.542,50.331 134.195,52.189 134.195,53.983 C134.195,58.6 136.883,66.251 142.813,66.251 C144.535,66.251 146.392,65.424 147.499,64.32 Z M145.499,77.417 C145.15525,77.372 144.890797,77.355125 144.573316,77.3487969 L143.769924,77.3466959 C142.847427,77.365011 139.394727,77.5436667 136.678,78.453 L136.118239,78.6623858 C134.290707,79.3797613 130.75,81.164 130.75,85.55 C130.75,90.44 135.508,93.961 142.883,93.961 C149.495,93.961 153.014,90.784 153.014,86.514 C153.014,82.993 150.739,81.139 145.499,77.417 Z M154.664,46.814 L150.394,46.814 L151.008539,47.3315344 C152.702356,48.7992969 155.285,51.4893023 155.285,56.12 C155.285,61.217 152.391,63.634 149.495,65.905 L149.041,66.3607917 C148.283361,67.1379444 147.566,68.021 147.566,69.286 C147.566,70.799 148.599,71.627 149.36,72.248 L151.842,74.174 L152.740784,74.935468 C155.39726,77.21713 157.628,79.5448 157.628,83.827 C157.628,90.304 151.356,96.85 139.504,96.85 C129.509,96.85 124.687,92.096 124.687,86.993 C124.687,84.512 125.922,81 129.993,78.585 C134.263,75.966 140.057,75.625 143.157,75.413 L142.737598,74.8754606 C141.896898,73.7829184 141.088,72.5592857 141.088,70.731 C141.088,69.561 141.434,68.871 141.778,68.04 C141.017,68.11 140.26,68.179 139.57,68.179 C132.267,68.179 128.131,62.733 128.131,57.36 C128.131,54.189 129.58,50.673 132.54,48.125 C136.47,44.886 141.157,44.333 144.881,44.333 L159.076,44.333 L154.664,46.814 Z" id="Shape" fill="#F9F8F7"></path>
                    <path d="M115.605,70.741 C117.259,68.537 117.672,65.786 117.672,63.1 L117.66705,62.6583 C117.531228,56.5001241 114.57981,45.485 106.249,45.485 C103.98,45.485 101.709,46.382 100.058,47.829 C97.4605806,50.1564194 96.9235151,53.0672934 96.8915685,55.9380782 L96.89,56.225 C96.89,63.032 100.262,74.245 108.59,74.245 C111.273,74.245 114.026,72.94 115.605,70.741 Z M107.005,76.313 C96.066,76.313 90.217,67.78 90.217,60.072 C90.217,51.057 97.578,43.354 108.041,43.354 C118.152,43.354 124.483,51.264 124.483,59.593 C124.483,67.6157126 118.367058,76.1152714 107.389894,76.3096036 L107.005,76.313 Z" id="Shape" fill="#F9F8F7"></path>
                    <path d="M78.312,70.741 C79.963,68.537 80.377,65.786 80.377,63.1 L80.3720462,62.6583 C80.2361344,56.5001241 77.2828095,45.485 68.952,45.485 C66.684,45.485 64.411,46.382 62.761,47.829 C60.077,50.234 59.596,53.262 59.596,56.225 L59.6018925,56.7245286 C59.761289,63.5658749 63.1666988,74.245 71.295,74.245 C73.979,74.245 76.73,72.94 78.312,70.741 Z M69.71,76.313 C58.769,76.313 52.92,67.78 52.92,60.072 C52.92,51.057 60.284,43.354 70.743,43.354 C80.857,43.354 87.187,51.264 87.187,59.593 C87.187,67.6157126 81.070081,76.1152714 70.0948264,76.3096036 L69.71,76.313 Z" id="Shape" fill="#F9F8F7"></path>
                    <path d="M47.663,75.235 L37.77,77.518 C33.756,78.142 30.16,78.691 26.357,78.691 C7.261,78.691 -1.42108547e-14,64.647 -1.42108547e-14,53.647 C-1.42108547e-14,40.228 10.306,27.779 27.949,27.779 C31.686,27.779 35.28,28.331 38.531,29.231 C43.72,30.684 46.14,32.481 47.663,33.52 L41.92,38.985 L39.5,39.536 L41.229,36.768 C38.878,34.487 34.586,30.268 26.426,30.268 C15.494,30.268 7.261,38.573 7.261,50.679 C7.261,63.68 16.671,75.926 31.749,75.926 C36.181,75.926 38.459,75.027 40.536,74.195 L40.536,63.059 L30.092,63.612 L35.623,60.635 L50.29,60.635 L48.493,62.363 C48.006,62.78 47.939,62.92 47.8,63.469 C47.728,64.093 47.663,66.1 47.663,66.792 L47.663,75.235" id="Fill-118" fill="#F9F8F7"></path>
                    <path d="M172.259,73.243 C169.975,73.035 169.497,72.622 169.497,69.921 L169.497,30.766 C169.511,30.617 169.521,30.465 169.535,30.32 C169.814,27.9 170.504,27.485 172.652,26.238 L162.755,26.238 L157.565,28.729 L162.854,28.729 L162.854,28.761 L162.85,28.735 L162.85,71.444 C162.85,72.825 162.577,73.035 160.984,75.108 L173.23,75.108 L175.789,73.591 C174.615,73.448 173.437,73.381 172.259,73.243" id="Fill-119" fill="#F9F8F7"></path>
                    <path d="M193.953,53.403 C195.256,52.924 195.944,52.511 195.944,51.55 C195.944,48.804 192.854,45.641 189.141,45.641 C186.39,45.641 181.241,47.772 181.241,55.19 C181.241,56.358 181.378,57.595 181.45,58.835 L193.953,53.403 Z M200.409,73.879 C199.656,74.292 198.9,74.775 198.147,75.116 C195.875,76.146 193.54,76.422 191.476,76.422 L190.827361,76.4163978 C188.637769,76.3743076 185.516219,76.0419687 182.338,73.741 C177.464,70.304 175.334,64.395 175.334,59.244 C175.334,48.596 183.991,43.376 191.067,43.376 C193.54,43.376 196.085,43.993 198.147,45.301 C201.578,47.563 202.472,50.517 202.95,52.098 L186.809,58.628 L181.518,59.04 C183.233,67.764 189.141,72.845 195.67,72.845 C199.173,72.845 201.716,71.61 204.051,70.444 L200.409,73.879 Z" id="Shape" fill="#F9F8F7"></path>
                    <polyline id="Fill-121" fill="#F9F8F7" points="207.04 43.845 207.04 48.379 206.49 48.379 206.49 43.845 204.99 43.845 204.99 43.376 208.539 43.376 208.539 43.845 207.04 43.845"></polyline>
                    <polyline id="Fill-122" fill="#F9F8F7" points="213.22 48.379 213.22 43.804 213.195 43.804 211.798 48.379 211.368 48.379 209.959 43.804 209.942 43.804 209.942 48.379 209.442 48.379 209.442 43.376 210.299 43.376 211.574 47.42 211.591 47.42 212.846 43.376 213.715 43.376 213.715 48.379 213.22 48.379"></polyline>
                    <path d="M4.866,8.239 L8.776,8.239 L7.80756494,5.27210547 C7.22873828,3.46097266 6.939,2.4519375 6.939,2.245 L6.767,2.245 C6.767,2.524 6.134,4.522 4.866,8.239 Z M13.739,14.308 L10.302,14.308 C10.302,13.836 9.975,12.497 9.324,10.291 L4.361,10.291 L4.17785801,10.8883878 C3.62686621,12.7085102 3.351,13.848381 3.351,14.308 L0.118,14.308 L0.125740741,14.2428613 C0.213469136,13.7681235 1.04688889,11.4978889 2.626,7.433 L3.41225931,5.39037008 C4.56037388,2.37392163 5.135,0.684085714 5.135,0.322 L9.195,0.322 C9.195,0.646 9.67238149,2.18584083 10.6276453,4.94202328 L12.3063547,9.71829814 C13.2262384,12.3689539 13.7029829,13.8864188 13.7370354,14.2689041 L13.739,14.308 Z" id="Shape" fill="#FCFBFA"></path>
                    <path d="M27.591,14.308 L24.937,14.308 C24.937,14.014 23.952,12.465 21.983,9.657 C19.921,6.699 18.746,4.677 18.46,3.588 L18.288,3.588 C18.467,5.156 18.556,6.574 18.556,7.842 C18.556,9.61 18.606,11.766 18.707,14.308 L16.064,14.308 C16.172,12.089 16.225,9.65 16.225,6.993 C16.225,4.379 16.172,2.155 16.064,0.322 L19.255,0.322 C19.255,0.702 20.139,2.217 21.908,4.866 C23.791,7.68 24.873,9.589 25.152,10.592 L25.313,10.592 C25.141,8.995 25.056,7.562 25.056,6.295 C25.056,4.354 25.005,2.363 24.905,0.322 L27.591,0.322 C27.49,2.098 27.44,4.322 27.44,6.993 C27.44,9.685 27.49,12.124 27.591,14.308" id="Fill-124" fill="#FCFBFA"></path>
                    <path d="M40.228,7.294 C40.228,5.919 39.827,4.761 39.025,3.818 C38.223,2.877 36.998,2.406 35.351,2.406 C35.043,2.406 34.62,2.438 34.083,2.503 C34.1406,3.6486 34.17516,4.83516 34.18668,6.063704 L34.191,6.993 C34.191,8.705 34.226,10.402 34.298,12.085 C34.764,12.178 35.229,12.224 35.695,12.224 C37.234,12.224 38.375,11.746 39.116,10.79 C39.857,9.834 40.228,8.669 40.228,7.294 Z M43.16,6.832 C43.16,8.866 42.509,10.641 41.205,12.16 C39.902,13.679 38.076,14.437 35.727,14.437 L34.9290888,14.4301302 C33.9713373,14.4148639 32.7763077,14.3741538 31.344,14.308 C31.4277,12.3613 31.47414,10.19185 31.482591,7.798921 L31.484,6.993 C31.484,4.387 31.437,2.163 31.344,0.322 L33.224,0.322 C33.4165,0.322 33.6675937,0.317703125 33.9775254,0.309353516 L35.6356145,0.259503429 C35.6978642,0.258493827 35.7496667,0.258 35.791,0.258 C38.376,0.258 40.251,0.902 41.415,2.191 C42.5095882,3.40417647 43.089519,4.84589273 43.1539587,6.51614879 L43.16,6.832 Z" id="Shape" fill="#FCFBFA"></path>
                    <path d="M53.489,4.426 C53.489,3.001 52.572,2.288 50.739,2.288 C50.065,2.288 49.471,2.338 48.955,2.438 L48.9912454,3.02142593 C49.0462222,4.04036111 49.074,5.29216667 49.074,6.778 L49.5168,6.792224 C49.6548,6.795728 49.7832,6.798016 49.902,6.799152 L50.073,6.8 C52.35,6.8 53.489,6.009 53.489,4.426 Z M57.517,14.308 L54.337,14.308 L54.1246175,13.6687208 C53.3966767,11.508327 52.8303913,10.1572609 52.425,9.614 C51.981,9.019 51.265,8.722 50.277,8.722 L49.4697407,8.72703704 C49.3392222,8.72866667 49.2106667,8.73066667 49.084,8.733 C49.084,10.574 49.117,12.432 49.181,14.308 L46.195,14.308 C46.287,12.145 46.334,9.707 46.334,6.993 L46.3265157,5.24988803 C46.3099112,3.38093491 46.2657692,1.73815385 46.195,0.322 L48.231011,0.320381344 L48.231011,0.320381344 L49.401,0.29 C50.085,0.268 50.717,0.258 51.297,0.258 C54.584,0.258 56.228,1.382 56.228,3.631 C56.228,5.414 55.289,6.656 53.413,7.358 L53.413,7.519 C54.137,7.72 54.77,8.284 55.315,9.211 C55.8017368,10.0404211 56.4405789,11.4886704 57.2315263,13.5535991 L57.517,14.308 Z" id="Shape" fill="#FCFBFA"></path>
                    <path d="M69.951,7.369 C69.951,5.872 69.567,4.658 68.801,3.727 C68.035,2.797 67.089,2.331 65.965,2.331 C64.919,2.331 64.032,2.8 63.301,3.738 C62.571,4.677 62.205,5.861 62.205,7.294 C62.205,8.783 62.59,9.995 63.36,10.929 C64.13,11.864 65.074,12.332 66.191,12.332 C67.236,12.332 68.124,11.861 68.855,10.919 C69.585,9.977 69.951,8.794 69.951,7.369 Z M72.915,7.057 C72.915,9.256 72.242,11.079 70.896,12.525 C69.549,13.971 67.884,14.695 65.901,14.695 C64.01,14.695 62.427,14.031 61.153,12.702 C59.878,11.374 59.241,9.685 59.241,7.637 C59.241,5.439 59.913,3.616 61.26,2.17 C62.606,0.723 64.271,0 66.255,0 C68.146,0 69.728,0.662 71.003,1.987 C72.2071667,3.23838889 72.8422531,4.81534877 72.9091017,6.71787963 L72.915,7.057 Z" id="Shape" fill="#FCFBFA"></path>
                    <path d="M78.989,14.308 L75.949,14.308 C76.042,12.089 76.089,9.65 76.089,6.993 C76.089,4.379 76.042,2.155 75.949,0.322 L78.989,0.322 C78.896,2.127 78.849,4.35 78.849,6.993 C78.849,9.693 78.896,12.132 78.989,14.308" id="Fill-128" fill="#FCFBFA"></path>
                    <path d="M91.627,7.294 C91.627,5.919 91.225,4.761 90.424,3.818 C89.621,2.877 88.397,2.406 86.75,2.406 C86.442,2.406 86.019,2.438 85.482,2.503 C85.5396,3.6486 85.57416,4.83516 85.58568,6.063704 L85.59,6.993 C85.59,8.705 85.625,10.402 85.697,12.085 C86.162,12.178 86.628,12.224 87.094,12.224 C88.633,12.224 89.774,11.746 90.515,10.79 C91.256,9.834 91.627,8.669 91.627,7.294 Z M94.559,6.832 C94.559,8.866 93.908,10.641 92.604,12.16 C91.301,13.679 89.474,14.437 87.126,14.437 L86.3280888,14.4301302 C85.3703373,14.4148639 84.1753077,14.3741538 82.743,14.308 C82.8267,12.3613 82.87314,10.19185 82.881591,7.798921 L82.883,6.993 C82.883,4.387 82.836,2.163 82.743,0.322 L84.623,0.322 C84.8155,0.322 85.0665937,0.317703125 85.3765254,0.309353516 L87.0346145,0.259503429 C87.0968642,0.258493827 87.1486667,0.258 87.19,0.258 C89.775,0.258 91.65,0.902 92.814,2.191 C93.9085882,3.40417647 94.488519,4.84589273 94.5529587,6.51614879 L94.559,6.832 Z" id="Shape" fill="#FCFBFA"></path>
                    <path d="M106.342,8.239 L110.252,8.239 L109.283333,5.27210547 C108.704211,3.46097266 108.414,2.4519375 108.414,2.245 L108.243,2.245 C108.243,2.524 107.61,4.522 106.342,8.239 Z M115.215,14.308 L111.778,14.308 C111.778,13.836 111.452,12.497 110.799,10.291 L105.836,10.291 L105.652883,10.8883878 C105.102048,12.7085102 104.827,13.848381 104.827,14.308 L101.594,14.308 C101.594,14.029 102.43,11.737 104.102,7.433 L104.888181,5.39037008 C106.03606,2.37392163 106.61,0.684085714 106.61,0.322 L110.67,0.322 C110.67,0.694 111.300137,2.66877509 112.559652,6.24708322 L113.886116,10.019114 C114.737678,12.4840031 115.180249,13.9011298 115.213033,14.2689041 L115.215,14.308 Z" id="Shape" fill="#FCFBFA"></path>
                    <path d="M124.974,4.576 C124.974,3.044 123.957,2.277 121.923,2.277 C121.414,2.277 120.877,2.331 120.312,2.438 C120.391,3.792 120.43,5.324 120.43,7.036 C120.609,7.051 120.817,7.057 121.053,7.057 C123.667,7.057 124.974,6.23 124.974,4.576 Z M127.745,3.985 C127.745,5.697 127.11,6.961 125.838,7.777 C124.568,8.594 123.008,9.002 121.16,9.002 L120.856037,8.99962963 C120.674778,8.99644444 120.536333,8.99 120.441,8.98 L120.450574,10.2394577 C120.466551,11.3764694 120.502571,12.7322857 120.559,14.308 L117.54,14.308 C117.62525,12.4114167 117.671847,10.2047708 117.679021,7.68729225 L117.68,6.993 C117.68,4.415 117.633,2.191 117.54,0.322 L119.622274,0.320381344 L119.622274,0.320381344 L121.653407,0.271925926 C122.11,0.262444444 122.522,0.258 122.89,0.258 C124.25,0.258 125.4,0.565 126.338,1.181 C127.218312,1.7594375 127.68466,2.61648828 127.739515,3.75380029 L127.745,3.985 Z" id="Shape" fill="#FCFBFA"></path>
                    <path d="M137.858,4.576 C137.858,3.044 136.841,2.277 134.807,2.277 C134.298,2.277 133.761,2.331 133.196,2.438 C133.275,3.792 133.314,5.324 133.314,7.036 C133.493,7.051 133.701,7.057 133.937,7.057 C136.551,7.057 137.858,6.23 137.858,4.576 Z M140.629,3.985 C140.629,5.697 139.993,6.961 138.723,7.777 C137.452,8.594 135.892,9.002 134.044,9.002 L133.739593,8.99962963 C133.558333,8.99644444 133.420333,8.99 133.325,8.98 L133.334574,10.2394577 C133.350551,11.3764694 133.386571,12.7322857 133.443,14.308 L130.424,14.308 C130.50925,12.4114167 130.555847,10.2047708 130.563021,7.68729225 L130.564,6.993 C130.564,4.415 130.517,2.191 130.424,0.322 L132.505804,0.320381344 L132.505804,0.320381344 L134.537407,0.271925926 C134.994,0.262444444 135.406,0.258 135.774,0.258 C137.134,0.258 138.284,0.565 139.222,1.181 C140.101375,1.7594375 140.568543,2.61648828 140.623504,3.75380029 L140.629,3.985 Z" id="Shape" fill="#FCFBFA"></path>
                    <path d="M158.729,7.369 C158.729,5.872 158.346,4.658 157.579,3.727 C156.813,2.797 155.868,2.331 154.743,2.331 C153.698,2.331 152.81,2.8 152.079,3.738 C151.349,4.677 150.984,5.861 150.984,7.294 C150.984,8.783 151.368,9.995 152.139,10.929 C152.909,11.864 153.852,12.332 154.969,12.332 C156.015,12.332 156.903,11.861 157.633,10.919 C158.364,9.977 158.729,8.794 158.729,7.369 Z M161.694,7.057 C161.694,9.256 161.021,11.079 159.674,12.525 C158.327,13.971 156.662,14.695 154.679,14.695 C152.788,14.695 151.205,14.031 149.931,12.702 C148.657,11.374 148.019,9.685 148.019,7.637 C148.019,5.439 148.692,3.616 150.038,2.17 C151.385,0.723 153.05,0 155.034,0 C156.924,0 158.507,0.662 159.782,1.987 C160.985222,3.23838889 161.621148,4.81534877 161.688093,6.71787963 L161.694,7.057 Z" id="Shape" fill="#FCFBFA"></path>
                    <path d="M176.254,14.308 L173.601,14.308 C173.601,14.014 172.617,12.465 170.647,9.657 C168.584,6.699 167.41,4.677 167.123,3.588 L166.952,3.588 C167.13,5.156 167.22,6.574 167.22,7.842 C167.22,9.61 167.27,11.766 167.37,14.308 L164.728,14.308 C164.835,12.089 164.889,9.65 164.889,6.993 C164.889,4.379 164.835,2.155 164.728,0.322 L167.918,0.322 C167.918,0.702 168.803,2.217 170.572,4.866 C172.455,7.68 173.536,9.589 173.816,10.592 L173.977,10.592 C173.805,8.995 173.719,7.562 173.719,6.295 C173.719,4.354 173.669,2.363 173.569,0.322 L176.254,0.322 C176.154,2.098 176.104,4.322 176.104,6.993 C176.104,9.685 176.154,12.124 176.254,14.308" id="Fill-134" fill="#FCFBFA"></path>
                </g>
            </g>
        </g>
    </g>
</svg>